<?xml version="1.0" encoding="UTF-8"?>
<svg id="Layer_2" data-name="Layer 2" xmlns="http://www.w3.org/2000/svg" viewBox="0 0 174.18 116.57">
  <defs>
    <style>
      .cls-1 {
        fill: #a845df;
      }

      .cls-1, .cls-2 {
        stroke-width: 0px;
      }

      .cls-2 {
        fill: #fff;
      }
    </style>
  </defs>
  <g id="Layer_1-2" data-name="Layer 1">
    <g>
      <g>
        <path class="cls-2" d="m31.63,103.81l3.25,9.32,3.46-10.03,3.72,10.06,3.25-9.35h1.52l-4.69,12.75-3.77-10.03-3.56,10.03-4.69-12.75h1.52Z"/>
        <path class="cls-2" d="m49.41,97.67c.19-.18.42-.27.68-.27.28,0,.51.09.69.27s.28.42.28.69c0,.26-.09.49-.28.68-.18.19-.41.29-.69.29-.26,0-.49-.1-.68-.29-.19-.19-.29-.42-.29-.68,0-.28.1-.51.29-.69Zm1.36,6.14v12.05h-1.36v-12.05h1.36Z"/>
        <path class="cls-2" d="m55.88,113.63c.3.37.68.66,1.14.89.46.23,1.01.34,1.64.34.73,0,1.32-.19,1.77-.56.45-.38.67-.89.67-1.56,0-.49-.14-.89-.42-1.22s-.65-.59-1.1-.81c-.45-.22-.94-.41-1.47-.59-.56-.21-1.1-.45-1.62-.71s-.96-.62-1.3-1.06-.51-1.03-.51-1.74.17-1.25.51-1.7c.34-.45.79-.79,1.33-1.01.55-.22,1.14-.33,1.77-.33.68,0,1.29.11,1.83.34s1,.52,1.39.89c.38.37.68.78.89,1.23l-1.13.68c-.28-.52-.67-.98-1.18-1.36-.51-.38-1.16-.58-1.96-.58-.59,0-1.1.15-1.51.45-.41.3-.62.73-.62,1.31,0,.47.13.86.39,1.17s.61.55,1.05.75c.44.19.9.38,1.39.55.65.24,1.24.52,1.79.81s.99.66,1.33,1.1c.34.44.51,1,.51,1.68,0,1.05-.36,1.9-1.09,2.55-.72.65-1.66.98-2.81.98-.84,0-1.57-.15-2.19-.45s-1.12-.68-1.49-1.15c-.38-.47-.65-.96-.82-1.47l1.1-.63c.17.44.41.84.71,1.2Z"/>
        <path class="cls-2" d="m67.4,115.31c-.84-.54-1.5-1.29-1.98-2.24s-.72-2.04-.72-3.26.24-2.3.73-3.25c.49-.94,1.17-1.68,2.04-2.21.87-.53,1.88-.8,3.01-.8s2.06.25,2.89.76c.83.51,1.48,1.21,1.94,2.11.46.9.69,1.93.69,3.1,0,.1,0,.22-.01.34,0,.12-.02.23-.04.31h-10.4v-1.18h9.37l-.58.81c.03-.09.07-.21.12-.35.04-.15.07-.29.07-.43,0-.82-.18-1.55-.54-2.2-.36-.65-.84-1.15-1.45-1.52-.61-.37-1.3-.55-2.07-.55-.89,0-1.66.21-2.32.62-.66.41-1.17.99-1.53,1.73s-.55,1.62-.55,2.63.18,1.93.54,2.7.87,1.36,1.52,1.78,1.42.63,2.29.63c.93,0,1.73-.2,2.42-.6.69-.4,1.3-1.03,1.85-1.89l1.1.71c-.68,1.05-1.47,1.82-2.37,2.32-.9.5-1.95.75-3.16.75-1.08,0-2.04-.27-2.88-.81Z"/>
        <path class="cls-2" d="m86.65,103.81l3.25,9.32,3.46-10.03,3.72,10.06,3.25-9.35h1.52l-4.69,12.75-3.77-10.03-3.56,10.03-4.69-12.75h1.52Z"/>
        <path class="cls-2" d="m104.75,113.74c.27.4.64.7,1.1.9.46.2.97.3,1.53.3.68,0,1.3-.16,1.87-.47.57-.31,1.03-.78,1.37-1.39.35-.61.52-1.36.52-2.25l.31,1.15c0,.94-.23,1.72-.68,2.33s-1.02,1.06-1.7,1.36c-.68.3-1.37.45-2.07.45s-1.34-.14-1.96-.43c-.63-.29-1.14-.71-1.52-1.27-.39-.56-.58-1.27-.58-2.12,0-1.17.41-2.1,1.22-2.78s1.92-1.02,3.31-1.02c.79,0,1.46.09,2.03.27s1.03.39,1.4.62.63.42.78.58v.86c-.59-.42-1.23-.73-1.9-.93-.67-.2-1.37-.3-2.11-.3-.68,0-1.27.1-1.77.29-.5.19-.89.48-1.16.86s-.42.88-.42,1.49.14,1.09.41,1.49Zm-1.03-8.75c.45-.31,1.04-.63,1.77-.96.72-.32,1.62-.48,2.68-.48.91,0,1.68.15,2.33.45s1.14.72,1.49,1.28c.35.56.52,1.24.52,2.04v8.54h-1.36v-8.35c0-.35-.05-.68-.16-1.01s-.28-.62-.51-.88-.55-.47-.96-.63c-.4-.16-.89-.24-1.47-.24s-1.13.07-1.6.21c-.47.14-.88.31-1.22.5-.34.19-.62.38-.85.55l-.68-1.02Z"/>
        <path class="cls-2" d="m117.62,95.43v20.42h-1.36v-20.42h1.36Z"/>
        <path class="cls-2" d="m123.12,95.43v20.42h-1.36v-20.42h1.36Z"/>
        <path class="cls-2" d="m128.91,115.31c-.84-.54-1.5-1.29-1.98-2.24s-.72-2.04-.72-3.26.24-2.3.73-3.25,1.17-1.68,2.04-2.21c.87-.53,1.88-.8,3.01-.8s2.06.25,2.89.76c.83.51,1.47,1.21,1.94,2.11.46.9.69,1.93.69,3.1,0,.1,0,.22-.01.34,0,.12-.02.23-.04.31h-10.4v-1.18h9.37l-.58.81c.03-.09.07-.21.12-.35.04-.15.07-.29.07-.43,0-.82-.18-1.55-.54-2.2-.36-.65-.84-1.15-1.45-1.52s-1.3-.55-2.07-.55c-.89,0-1.66.21-2.32.62-.66.41-1.17.99-1.53,1.73-.36.74-.55,1.62-.55,2.63s.18,1.93.54,2.7.87,1.36,1.52,1.78c.66.42,1.42.63,2.29.63.93,0,1.73-.2,2.42-.6s1.3-1.03,1.85-1.89l1.1.71c-.68,1.05-1.47,1.82-2.37,2.32s-1.95.75-3.16.75c-1.08,0-2.04-.27-2.88-.81Z"/>
        <path class="cls-2" d="m144.07,103.81v1.28h-5.29v-1.28h5.29Zm-1.97-4.19v16.24h-1.36v-16.24h1.36Z"/>
      </g>
      <path class="cls-1" d="m11.25,15H0L6.54,0h19.61l13.82,43.83L53.69,0h19.61l13.82,43.83L100.83,0h19.61l-23.57,75.01h-19.61l-13.72-43.83-13.82,43.83h-19.61L11.25,15Z"/>
      <path class="cls-2" d="m144.07,75.01h-19.61l-13.82-43.83-13.72,43.83h-19.61L53.69,0h19.66l13.72,43.83L100.89,0h19.61l13.72,43.83L148.03,0h19.61l6.54,15h-11.25l-18.86,60.01Z"/>
    </g>
  </g>
</svg>